<svg width="96" height="96" xmlns="http://www.w3.org/2000/svg" xmlns:xlink="http://www.w3.org/1999/xlink" xml:space="preserve" overflow="hidden"><g transform="translate(-396 -200)"><path d="M487.288 237.022C487.226 236.125 486.574 235.38 485.693 235.2L475.119 233.041C474.461 232.905 473.78 233.11 473.306 233.586L471.17 235.721 456.97 221.521C456.799 224.431 455.228 227.077 452.756 228.621L465.513 241.378 463.45 243.442C462.981 243.911 462.775 244.581 462.9 245.232L464.945 255.916C465.116 256.809 465.869 257.474 466.776 257.535L477.382 258.242C477.427 258.242 477.472 258.247 477.517 258.247 478.622 258.283 479.546 257.417 479.582 256.312 479.619 255.208 478.753 254.283 477.648 254.247L468.582 253.647 467.027 245.522 475.374 237.175 483.4 238.81 484.006 247.894C484.079 248.997 485.033 249.831 486.136 249.758 487.239 249.685 488.073 248.731 488 247.628Z"/><path d="M438.941 250.941C438.942 247.727 438.023 244.579 436.292 241.87L429.236 250.3C425.585 254.677 419.077 255.265 414.701 251.613 410.324 247.962 409.736 241.455 413.387 237.078 413.784 236.602 414.224 236.162 414.7 235.765L414.96 235.547C408.931 238.298 405.062 244.314 405.06 250.941L405.06 270 438.941 270Z"/><path d="M439 221C439 220.391 439.062 219.784 439.184 219.188L416.623 238.065C413.524 240.661 413.117 245.278 415.713 248.377 418.31 251.476 422.927 251.883 426.025 249.287 426.355 249.011 426.659 248.706 426.935 248.377L443.388 228.714C440.671 227.093 439.005 224.164 439 221ZM423.923 243.906C423.142 244.687 421.876 244.687 421.095 243.906 420.313 243.126 420.313 241.859 421.094 241.078 421.875 240.297 423.141 240.297 423.923 241.078 423.923 241.078 423.923 241.078 423.923 241.078 424.704 241.859 424.704 243.125 423.923 243.906Z"/><path d="M439 274 405 274C402.791 274 401 275.791 401 278L401 282 443 282 443 278C443 275.791 441.209 274 439 274Z"/><path d="M448 215C444.686 215 442 217.686 442 221 442 224.314 444.686 227 448 227 451.314 227 454 224.314 454 221 454 217.686 451.314 215 448 215ZM448 222.5C447.172 222.5 446.5 221.828 446.5 221 446.5 220.172 447.172 219.5 448 219.5 448.828 219.5 449.5 220.172 449.5 221 449.5 221.828 448.828 222.5 448 222.5Z"/></g></svg>