<svg width="87" height="67" viewBox="0 0 87 67" fill="none" xmlns="http://www.w3.org/2000/svg">
<path d="M86.288 22.022C86.226 21.125 85.574 20.38 84.693 20.2L74.119 18.041C73.461 17.905 72.78 18.11 72.306 18.586L70.17 20.721L55.97 6.521C55.799 9.431 54.228 12.077 51.756 13.621L64.513 26.378L62.45 28.442C61.981 28.911 61.775 29.581 61.9 30.232L63.945 40.916C64.116 41.809 64.869 42.474 65.776 42.535L76.382 43.242C76.427 43.242 76.472 43.247 76.517 43.247C77.622 43.283 78.546 42.417 78.582 41.312C78.619 40.208 77.753 39.283 76.648 39.247L67.582 38.647L66.027 30.522L74.374 22.175L82.4 23.81L83.006 32.894C83.079 33.997 84.033 34.831 85.136 34.758C86.239 34.685 87.073 33.731 87 32.628L86.288 22.022Z" fill="white"/>
<path d="M37.941 35.941C37.942 32.727 37.023 29.579 35.292 26.87L28.236 35.3C24.585 39.677 18.077 40.265 13.701 36.613C9.32399 32.962 8.73599 26.455 12.387 22.078C12.784 21.602 13.224 21.162 13.7 20.765L13.96 20.547C7.93099 23.298 4.062 29.314 4.06 35.941V55H37.941V35.941Z" fill="white"/>
<path d="M38 6C38 5.391 38.062 4.784 38.184 4.188L15.623 23.065C12.524 25.661 12.117 30.278 14.713 33.377C17.31 36.476 21.927 36.883 25.025 34.287C25.355 34.011 25.659 33.706 25.935 33.377L42.388 13.714C39.671 12.093 38.005 9.164 38 6ZM22.923 28.906C22.142 29.687 20.876 29.687 20.095 28.906C19.313 28.126 19.313 26.859 20.094 26.078C20.875 25.297 22.141 25.297 22.923 26.078C23.704 26.859 23.704 28.125 22.923 28.906Z" fill="white"/>
<path d="M38 59H4C1.791 59 0 60.791 0 63V67H42V63C42 60.791 40.209 59 38 59Z" fill="white"/>
<path d="M47 0C43.686 0 41 2.686 41 6C41 9.314 43.686 12 47 12C50.314 12 53 9.314 53 6C53 2.686 50.314 0 47 0ZM47 7.5C46.172 7.5 45.5 6.828 45.5 6C45.5 5.172 46.172 4.5 47 4.5C47.828 4.5 48.5 5.172 48.5 6C48.5 6.828 47.828 7.5 47 7.5Z" fill="white"/>
</svg>
